<svg width="24" height="24" viewBox="0 0 24 24" fill="none" xmlns="http://www.w3.org/2000/svg">
<path d="M9 3.5C9.3 3.4 9.5 3.3 9.8 3.3C10.5 3.1 11.2 3 12 3C17 3 21 7 21 12V14" stroke="currentColor" stroke-width="2" stroke-linecap="round" stroke-linejoin="round"/>
<path d="M3 18.0001V12.0001C3 9.5001 4 7.3001 5.6 5.6001" stroke="currentColor" stroke-width="2" stroke-linecap="round" stroke-linejoin="round"/>
<path d="M20.3 20.3C20.3 20.3 20.2 21 19 21H18C16.9 21 16 20.1 16 19V16L20.3 20.3ZM20.1 14H21H20.1ZM3 19C3 20.1 3.9 21 5 21H6C7.1 21 8 20.1 8 19V16C8 14.9 7.1 14 6 14H3V19Z" stroke="currentColor" stroke-width="2" stroke-linecap="round" stroke-linejoin="round"/>
<path d="M2 2L22 22" stroke="currentColor" stroke-width="2" stroke-linecap="round" stroke-linejoin="round"/>
</svg>
